<?xml version="1.0" encoding="utf-8"?>
<!-- Generator: Adobe Illustrator 24.0.2, SVG Export Plug-In . SVG Version: 6.00 Build 0)  -->
<svg version="1.1" id="Capa_1" xmlns="http://www.w3.org/2000/svg" xmlns:xlink="http://www.w3.org/1999/xlink" x="0px" y="0px"
	 viewBox="0 0 1000 1000" style="enable-background:new 0 0 1000 1000;" xml:space="preserve">
<style type="text/css">
	.st0{fill:#5EB8E2;}
	.st1{fill:#6FBFE5;}
	.st2{fill:#FDFEFE;}
	.st3{fill:#5EB9E2;}
</style>
<g>
	<path class="st0" d="M624.07,311.97c0.61,0.08,1.23,0.16,1.84,0.24c0.44,1.41,0.63,2.97,1.35,4.22
		c13.58,23.64,27.21,47.25,40.86,70.84c20.47,35.4,40.96,70.78,61.48,106.16c1.57,2.72,1.72,5.29,0.08,8
		c-1.55,2.56-3.01,5.17-4.51,7.76c-14.24,24.6-28.49,49.19-42.71,73.8c-16.05,27.78-32.14,55.53-48.06,83.38
		c-4.02,7.03-8.87,13.64-11.49,21.43c-0.61,0.08-1.21,0.16-1.82,0.25c-18.31-0.03-36.62-0.08-54.93-0.09
		c-40.12-0.01-80.24-0.07-120.36,0.09c-4.84,0.02-8.07-0.99-10.33-5.7c-2.94-6.12-6.73-11.83-10.13-17.74
		c-14.35-24.91-28.68-49.83-43.04-74.74c-13.2-22.89-26.34-45.81-39.7-68.6c-4.01-6.84-7.31-14.15-12.52-20.26c0-0.67,0-1.34,0-2.01
		c0.67-0.72,1.51-1.33,1.99-2.16c16.17-27.92,32.31-55.87,48.45-83.81c18.39-31.83,36.89-63.59,55.05-95.55
		c2.47-4.34,5.29-5.52,9.94-5.51c58.49,0.12,116.97,0.07,175.46,0.07C622.01,312.01,623.04,311.99,624.07,311.97z M548.45,493.4
		c2.72-0.91,5.08-1.7,7.45-2.49c16.73-5.61,31.45-14.42,43.44-27.48c17.12-18.64,24.69-40.63,21.09-65.7
		c-4.15-28.88-22.16-46.48-49.2-54.56c-33.98-10.16-67.95-8.32-100.82,4.88c-42.64,17.13-67.73,50.2-81.32,92.94
		c-7.64,24.04-10.1,48.87-9.59,73.96c0.38,18.79,3.65,37.12,12.17,54.13c11.39,22.72,28.45,38.19,54.77,40.4
		c25.52,2.14,37.51-7.54,44.28-26.95c1.47-4.22,2.46-8.65,3.24-13.06c3.38-19.17,6.7-38.35,9.79-57.57
		c0.59-3.68,1.91-4.29,5.26-3.43c9.24,2.37,15.17,8.68,19.9,16.39c6.45,10.51,11.92,21.56,17.26,32.66
		c6.37,13.26,13.24,26.28,23.96,36.59c16.91,16.26,37.45,18.72,59.1,13.36c22.93-5.67,38.53-21.8,51.86-40.07
		c4.97-6.81,5.11-15.45,2.87-23.62c-2.17-7.9-9.43-9.72-15.41-4.04c-2.65,2.52-4.94,5.41-7.4,8.13
		c-5.14,5.69-10.4,11.26-16.49,15.97c-4.95,3.83-10.37,6.56-16.72,7.26c-13.02,1.45-21.83-5.07-29.04-14.93
		c-7.13-9.76-11.71-20.89-17.26-31.5c-7.23-13.82-16.43-25.51-32.25-30.12C549.13,494.44,548.97,494.03,548.45,493.4z"/>
	<path class="st1" d="M330.08,501.01c5.21,6.11,8.51,13.42,12.52,20.26c13.37,22.79,26.51,45.71,39.7,68.6
		c14.36,24.9,28.69,49.83,43.04,74.74c3.4,5.9,7.19,11.62,10.13,17.74c2.26,4.72,5.49,5.72,10.33,5.7
		c40.12-0.16,80.24-0.1,120.36-0.09c18.31,0.01,36.62,0.06,54.93,0.09c-2.78,7.9-7.75,14.64-11.83,21.83
		c-14.44,25.45-29.31,50.65-43.71,76.13c-2.86,5.06-5.94,7.1-11.99,7.07c-56.93-0.27-113.87-0.16-170.81-0.15
		c-2.33,0-4.65,0.14-6.98,0.21c-0.54-0.23-1.08-0.47-1.62-0.7c-3.19-8.46-8.49-15.78-12.92-23.55
		c-18.05-31.65-36.37-63.14-54.59-94.68c-11.32-19.59-22.43-39.3-34.08-58.69c-3.31-5.51-3.72-9.6-0.3-15.39
		c19.03-32.23,37.58-64.74,56.31-97.15C328.98,502.26,329.57,501.66,330.08,501.01z"/>
	<path class="st1" d="M620.97,312.04c-58.49,0-116.97,0.05-175.46-0.07c-4.65-0.01-7.47,1.17-9.94,5.51
		c-18.17,31.95-36.66,63.72-55.05,95.55c-16.14,27.94-32.28,55.88-48.45,83.81c-0.48,0.83-1.32,1.45-1.99,2.16
		c-1.26-1.02-1.83-2.4-2.11-3.95c-0.6-3.25-0.86-6.45-3.18-9.3c-2.33-2.85-3.87-6.34-5.71-9.58c-4.35-7.66-8.55-15.4-13.02-22.98
		c-4.53-7.68-9.12-15.32-13.35-23.19c-1.48-2.75-2.48-6.56-6.65-6.99c-0.34-0.66-0.68-1.32-1.01-1.98c1.57-1.75,0.79-3.22-0.35-4.87
		c-2.76-3.99-4.85-8.38-7.16-12.64c-1.42-2.62-1.63-7.07-6.47-6.5c-1.47-1.34-2.07-3.03-2.04-4.98c0.7-0.41,1.54-0.68,2.07-1.24
		c6.43-6.83,9.17-15.93,14.43-23.56c6.31-9.15,10.77-19.56,16.44-29.18c4.87-8.25,10.19-16.22,14.49-24.84
		c1.49-2.99,2.64-6.63,4.81-8.85c6.15-6.29,7.58-15.24,13.23-21.69c0.94-1.07,0.63-2.53-0.46-3.62c0.34-0.66,0.68-1.32,1.01-1.98
		c1.72,1.3,2.04-0.24,2.96-1.22c3.08-3.26,4.97-7.44,6.75-11.24c2.15-4.6,5.94-8,7.71-12.63c2.51-6.58,6.22-12.68,10.04-18.31
		c4.82-7.09,7.47-15.36,12.96-21.97c0.92-1.1,0.63-2.54-0.45-3.63c0.34-0.66,0.68-1.32,1.02-1.98c3.92,0.54,7.58-1.14,11.53-1.13
		c54.88,0.17,109.76,0.12,164.64,0.12c8.31,0,9.61,1.24,13.15,9.02c1.26,2.78,2.43,6.56,6.61,6.99c0.34,0.66,0.68,1.32,1.01,1.98
		c-1.58,1.76-0.95,3.34,0.4,4.86c0.99,1.11,1.83,2.27,2.56,3.62c2.86,5.31,5.02,10.98,8.75,15.88c2.53,3.32,4.25,7.26,6.33,10.93
		c2.65,4.7,5.05,9.57,8.02,14.06c2.7,4.09,4.66,8.56,7.25,12.65c1.7,2.69,2.5,6.56,6.68,7c0.34,0.66,0.68,1.32,1.01,1.98
		c-1.74,1.99-0.32,3.39,0.6,5.23C616.7,303.53,620.55,306.94,620.97,312.04z"/>
	<path class="st1" d="M571.98,221.08c-4.18-0.42-5.35-4.21-6.61-6.99c-3.54-7.79-4.84-9.02-13.15-9.02
		c-54.88,0-109.76,0.06-164.64-0.12c-3.96-0.01-7.61,1.67-11.53,1.13c0.37-1.2,0.74-2.39,1.12-3.59c0.53-0.23,1.06-0.45,1.58-0.68
		c2.32,0.09,4.64,0.26,6.97,0.26c56.54,0.01,113.07,0.07,169.61-0.1c4.4-0.01,7.15,1.15,9.07,5.08
		C566.73,211.83,569.43,216.42,571.98,221.08z"/>
	<path class="st1" d="M334.03,279.05c1.08,1.09,1.39,2.55,0.46,3.62c-5.65,6.45-7.09,15.4-13.23,21.69
		c-2.17,2.22-3.31,5.86-4.81,8.85c-4.3,8.62-9.62,16.58-14.49,24.84c-5.68,9.62-10.13,20.02-16.44,29.18
		c-5.26,7.64-8,16.73-14.43,23.56c-0.53,0.56-1.37,0.84-2.07,1.24c3.23-8.43,8.5-15.75,12.93-23.5
		c16.7-29.26,33.71-58.35,50.62-87.49C332.97,280.33,333.54,279.71,334.03,279.05z"/>
	<path class="st1" d="M286.05,423c4.18,0.43,5.17,4.24,6.65,6.99c4.23,7.86,8.82,15.5,13.35,23.19c4.47,7.58,8.68,15.32,13.02,22.98
		c1.84,3.24,3.38,6.73,5.71,9.58c2.32,2.84,2.58,6.05,3.18,9.3c-4.7-6.02-8.02-12.88-11.82-19.45
		C306.03,458.12,296.08,440.54,286.05,423z"/>
	<path class="st1" d="M375.02,208.07c1.09,1.1,1.37,2.53,0.45,3.63c-5.5,6.61-8.15,14.87-12.96,21.97
		c-3.82,5.63-7.53,11.73-10.04,18.31c-1.77,4.63-5.56,8.04-7.71,12.63c-1.78,3.8-3.67,7.98-6.75,11.24
		c-0.92,0.98-1.25,2.51-2.96,1.22C348.07,253.89,361.09,230.72,375.02,208.07z"/>
	<path class="st1" d="M271.06,397.01c4.84-0.57,5.06,3.88,6.47,6.5c2.3,4.26,4.39,8.65,7.16,12.64c1.14,1.65,1.92,3.12,0.35,4.87
		C279.83,413.34,275.3,405.26,271.06,397.01z"/>
	<path class="st1" d="M622.92,687.8c2.62-7.79,7.47-14.4,11.49-21.43c15.92-27.85,32.01-55.61,48.06-83.38
		c14.22-24.61,28.47-49.2,42.71-73.8c1.5-2.59,2.96-5.2,4.51-7.76c1.64-2.71,1.49-5.28-0.08-8c-20.51-35.37-41-70.76-61.48-106.16
		c-13.65-23.6-27.28-47.21-40.86-70.84c-0.72-1.25-0.91-2.81-1.35-4.22c27.81-0.05,55.63-0.11,83.44-0.14
		c21.82-0.02,43.64,0.05,65.46-0.07c3.19-0.02,5.31,0.88,6.92,3.69c15.07,26.26,30.22,52.47,45.35,78.69
		c14.22,24.64,28.39,49.3,42.7,73.89c6.01,10.33,11.45,21.01,18.35,30.81c0,0.62,0,1.24,0,1.86c-7.29,10.34-13.04,21.61-19.37,32.52
		c-27.39,47.19-54.96,94.27-81.61,141.88c-5.48,9.79-11.27,13.06-22.33,12.9C717.53,687.51,670.22,687.85,622.92,687.8z"/>
	<path class="st1" d="M612.97,292.06c-4.18-0.44-4.98-4.31-6.68-7c-2.59-4.09-4.55-8.56-7.25-12.65c-2.97-4.49-5.36-9.36-8.02-14.06
		c-2.07-3.67-3.79-7.61-6.33-10.93c-3.73-4.9-5.88-10.57-8.75-15.88c-0.73-1.35-1.58-2.5-2.56-3.62c-1.34-1.52-1.97-3.1-0.4-4.86
		c9.67,14.94,17.94,30.69,26.96,46.01C604.42,276.66,608.64,284.39,612.97,292.06z"/>
	<path class="st1" d="M620.97,312.04c-0.42-5.1-4.28-8.5-6.39-12.76c-0.91-1.84-2.34-3.24-0.6-5.23
		c3.78,5.74,7.74,11.38,10.09,17.92C623.04,311.99,622.01,312.01,620.97,312.04z"/>
	<path class="st2" d="M548.45,493.4c0.52,0.64,0.68,1.04,0.93,1.11c15.82,4.62,25.02,16.31,32.25,30.12
		c5.55,10.61,10.13,21.74,17.26,31.5c7.21,9.87,16.03,16.38,29.04,14.93c6.35-0.71,11.77-3.44,16.72-7.26
		c6.09-4.71,11.35-10.28,16.49-15.97c2.46-2.72,4.75-5.61,7.4-8.13c5.98-5.68,13.24-3.86,15.41,4.04c2.25,8.17,2.1,16.81-2.87,23.62
		c-13.33,18.27-28.92,34.4-51.86,40.07c-21.66,5.36-42.2,2.9-59.1-13.36c-10.72-10.31-17.58-23.33-23.96-36.59
		c-5.34-11.1-10.81-22.15-17.26-32.66c-4.73-7.71-10.66-14.01-19.9-16.39c-3.35-0.86-4.66-0.25-5.26,3.43
		c-3.09,19.22-6.41,38.4-9.79,57.57c-0.78,4.41-1.77,8.84-3.24,13.06c-6.77,19.41-18.76,29.09-44.28,26.95
		c-26.32-2.21-43.38-17.68-54.77-40.4c-8.53-17.01-11.79-35.34-12.17-54.13c-0.51-25.09,1.94-49.92,9.59-73.96
		c13.59-42.74,38.69-75.81,81.32-92.94c32.87-13.21,66.85-15.04,100.82-4.88c27.04,8.08,45.05,25.69,49.2,54.56
		c3.61,25.07-3.97,47.06-21.09,65.7c-11.99,13.06-26.71,21.88-43.44,27.48C553.53,491.7,551.17,492.49,548.45,493.4z M413.88,505.77
		c0.27,12.77,1.34,24.31,4.26,35.53c2.77,10.64,6.48,21.02,15.3,28.49c5.73,4.85,11.71,3.38,14.7-3.52
		c0.72-1.67,1.56-3.35,1.88-5.12c3.11-16.75,6.05-33.54,9.22-50.28c0.61-3.22-0.44-3.86-3.37-3.88c-4.63-0.04-9.03-1.33-11.58-5.54
		c-3.72-6.13-5.01-12.77-1.22-19.3c3.46-5.97,9.05-8.58,15.96-8.29c1.16,0.05,2.33-0.05,3.5,0c2.24,0.11,3.17-0.87,3.53-3.15
		c1.92-12.07,3.97-24.13,6.08-36.17c0.85-4.89,2.16-9.7,2.89-14.6c2.96-19.77,21.92-23.81,36.09-19.38
		c5.21,1.63,7.94,5.49,8.77,10.42c0.63,3.71,0.55,7.71-0.07,11.44c-2.41,14.53-5.1,29.02-7.82,43.5c-1.57,8.37-1.66,8.48,6.58,7.02
		c27.93-4.95,49.91-21.76,53.9-50.35c2.78-19.92-5.42-38.64-26.56-46.07c-13.79-4.85-28.01-4.97-42.19-3.19
		c-29.8,3.75-52.18,19.21-67.79,44.65C419.18,445.29,415.5,475.85,413.88,505.77z"/>
	<path class="st3" d="M413.88,505.77c1.61-29.92,5.3-60.48,22.05-87.79c15.62-25.45,37.99-40.91,67.79-44.65
		c14.18-1.78,28.4-1.66,42.19,3.19c21.14,7.44,29.34,26.15,26.56,46.07c-3.99,28.59-25.97,45.41-53.9,50.35
		c-8.24,1.46-8.15,1.36-6.58-7.02c2.72-14.48,5.4-28.97,7.82-43.5c0.62-3.73,0.69-7.73,0.07-11.44c-0.83-4.93-3.56-8.79-8.77-10.42
		c-14.17-4.43-33.12-0.39-36.09,19.38c-0.73,4.9-2.04,9.71-2.89,14.6c-2.1,12.05-4.15,24.1-6.08,36.17
		c-0.36,2.28-1.29,3.26-3.53,3.15c-1.16-0.06-2.33,0.05-3.5,0c-6.91-0.29-12.51,2.32-15.96,8.29c-3.78,6.53-2.5,13.17,1.22,19.3
		c2.56,4.21,6.95,5.5,11.58,5.54c2.93,0.03,3.98,0.67,3.37,3.88c-3.17,16.74-6.11,33.53-9.22,50.28c-0.33,1.76-1.16,3.45-1.88,5.12
		c-2.99,6.91-8.97,8.37-14.7,3.52c-8.83-7.47-12.53-17.85-15.3-28.49C415.22,530.08,414.16,518.54,413.88,505.77z"/>
</g>
</svg>
